<?xml version="1.0" encoding="UTF-8"?>
<svg id="_Слой_2" data-name="Слой 2" xmlns="http://www.w3.org/2000/svg" viewBox="0 0 195.6 108.6">
  <defs>
    <style>
      .cls-1 {
        fill: #fff;
      }

      .cls-2 {
        opacity: .2;
      }

      .cls-2, .cls-3 {
        fill: none;
      }

      .cls-3 {
        opacity: .7;
      }

      .cls-4 {
        fill: #b2cb57;
      }

      .cls-5 {
        fill: #7a8f2b;
      }

      .cls-6 {
        fill: #d36ea1;
      }

      .cls-7 {
        fill: #a1bf38;
      }

      .cls-8 {
        fill: #5e4f44;
      }

      .cls-9 {
        fill: #db9022;
      }

      .cls-10 {
        fill: #222221;
      }

      .cls-11 {
        fill: #38302b;
      }
    </style>
  </defs>
  <g id="_Слой_7" data-name="Слой 7">
    <g>
      <g>
        <g>
          <path class="cls-8" d="m65.4,90.7c-3.6,1.5-6.9,3.4-10.5,4.8-1.5.6-.8,3,.7,2.4,3.6-1.5,6.9-3.3,10.5-4.8,1.4-.6.7-3-.7-2.4h0Z"/>
          <path class="cls-8" d="m51.4,94.5c2.3-.1,4.6-.5,6.8-.6,1.4-.1,2,.1,2.3,1.5.3,1.3,0,2.8-.2,4-.2,1.6,2.2,2.3,2.4.7.3-2.3,1.1-6.9-1.6-8.2-2.8-1.4-6.8.1-9.8.2-1.6,0-1.6,2.5.1,2.4h0Z"/>
        </g>
        <g>
          <path class="cls-8" d="m88.4,98.4c-3.2,1.3-5.6,3.7-8.5,5.6-1.3.9-.1,3.1,1.3,2.2,2.6-1.8,4.9-4.1,7.9-5.4,1.4-.6.7-3-.7-2.4h0Z"/>
          <path class="cls-8" d="m75.7,103.3c2.6-.7,5.2-1.2,7.8-1.3,2.5-.1,1.9,3.8,1.9,5.4.1,1.6,2.6,1.6,2.5,0-.1-2.6.3-5.8-2.2-7.4-1.4-.9-3.3-.5-4.8-.3-2,.2-3.9.7-5.9,1.2-1.5.4-.9,2.8.7,2.4h0Z"/>
        </g>
      </g>
      <g>
        <path class="cls-7" d="m30.9,55.7c36.4-6.4,69.7-36.7,104.8-44.9,31.3-6.5,60.9,11.6,46.2,48.7-10.4,27.2-54.9,40.2-82,41.9-33.2,1.8-57.4-14.2-69.8-44.5"/>
        <path class="cls-4" d="m74,96.5c2.1-5.2,6.9-8.2,12-10,7.6-2.7,15.9-3.8,23.9-4.3,10.4-.6,26.7-.1,33.1,9.4-14.8,5.8-30.8,9-43.2,9.8-9.6.5-18.4-.5-26.5-2.8.3-.7.5-1.4.7-2.1Z"/>
        <path class="cls-4" d="m158.2,73.4c.2-.5-.6-1-.9-.5-1.2,2.1-4.4,4.5-7,3.3-3.7-1.8-2.4-5.9-1.8-9,.1-.4-.5-.7-.8-.4-2.7,2.7-8.6,6-11.9,1.9-2.3-2.8.3-6.8,1.6-9.6.2-.4-.3-.8-.7-.6-2.9,1.6-7.3,3.8-9.2-.5-1.1-2.6-1.2-6.5.8-8.7.4-.4,0-1.1-.5-.8-2.4,1.1-5.9,2-8.2.2-2.3-1.7-2.6-4.6-1.4-6.9.6-.4,1.1-1,1.4-1.8.2-.5-.4-.9-.8-.6-.5.4-.9,1-1.3,1.5-1.3.9-3.2,1.2-4.6.7-3.8-1.3-2-5.3-.8-7.8.2-.4-.2-.7-.6-.7-1.4.1-2.8.3-4.1.1-2-.3-4-2.7-2-4.4,1.6-1.4,3.6-2,5.2-3.2.4-.3.1-1-.4-.9-1.6.4-3.6.8-5.1.1-.9-.4-1.3-.9-1.5-1.5,10.6-5.4,21.3-10,32.1-12.5,31.3-6.5,60.9,11.6,46.2,48.7-3.6,9.5-11.4,17.3-21.2,23.4-4.1-1.1-3.8-6-2.5-9.5Z"/>
      </g>
      <g>
        <path class="cls-7" d="m160,10.4s.1-.2.3-.5c.1-.1.2-.3.3-.5.1-.2.3-.4.5-.7s.4-.6.6-.9c.2-.3.4-.6.7-.9.5-.6,1-1.2,1.6-1.8s1.1-1.2,1.7-1.7c.5-.5,1.1-1,1.5-1.3.9-.8,1.5-1.2,1.5-1.2,0,0-.4.7-.9,1.7-.3.5-.6,1.1-.9,1.8-.3.6-.6,1.4-.8,2.1-.2.7-.5,1.4-.6,2.1-.1.3-.2.7-.2.9,0,.3-.1.6-.1.8s-.1.5-.1.7-.1.4-.1.6c0,.3-.1.5-.1.5-.2,1.4-1.5,2.4-2.9,2.2s-2.4-1.5-2.2-2.9c0-.4.1-.7.2-1Z"/>
        <path class="cls-7" d="m158.9,11.3s.1-.2.2-.5.4-.8.6-1.2c.2-.5.5-1,.8-1.7.3-.6.5-1.3.8-2,.1-.4.2-.7.3-1.1.1-.4.2-.7.2-1,.2-.7.2-1.3.3-1.9.1-.6.1-1,.1-1.4v-.5s.1.2.2.5.3.8.5,1.3c.2.6.4,1.2.5,2,.1.4.2.8.2,1.1.1.4.1.8.2,1.2.1.8.1,1.6.1,2.4v2.1c0,.7-.1,1.1-.1,1.4v.5c-.1,1.4-1.3,2.5-2.7,2.4-1.4-.1-2.5-1.3-2.4-2.7-.1-.2,0-.6.2-.9Z"/>
        <path class="cls-7" d="m159.8,11.4s.7-.5,1.7-1.1c.3-.2.5-.4.8-.6.3-.2.7-.4,1.1-.6.4-.2.8-.4,1.1-.6l1.2-.6c.8-.3,1.6-.6,2.3-.9.7-.3,1.4-.5,2-.7,1.2-.4,2-.6,2-.6,0,0-.6.5-1.6,1.3-.5.4-1,.8-1.6,1.4-.5.5-1.1,1.1-1.7,1.6-.3.3-.5.6-.8.9-.2.3-.5.6-.7.8-.2.3-.4.5-.6.8s-.4.6-.6.8c-.7,1-1.2,1.7-1.2,1.7h0c-.8,1.2-2.4,1.5-3.5.7-1.2-.8-1.5-2.4-.7-3.5.3-.4.5-.6.8-.8Z"/>
      </g>
      <g>
        <g>
          <path class="cls-5" d="m28.3,49.8s-4-3.6-7.9-7.2c-3.9-3.6-7.8-7.2-7.8-7.2l-.2-.2c-1.7-1.5-1.8-4.1-.3-5.8s4.1-1.8,5.8-.3c.4.4.7.8.9,1.2,0,0,2.4,4.8,4.7,9.7,2.4,5,4.8,9.8,4.8,9.8Z"/>
          <path class="cls-5" d="m24.4,55.1s-1.2,0-3.1.1c-.5,0-1,0-1.5.1h-1.7c-1.2,0-2.4-.1-3.7-.1-1.2,0-2.4-.1-3.6-.1-.6,0-1.1-.1-1.6,0h-1.4c-1.7,0-2.9.1-2.9.1h-.3c-2.3.1-4.2-1.7-4.2-4-.1-2.3,1.7-4.2,4-4.2.6,0,1.1.1,1.6.3,0,0,1.2.5,3,1.2.4.2.9.4,1.4.6.5.2,1,.5,1.5.7,1,.5,2.2,1,3.3,1.6,1.1.5,2.1,1,3.2,1.5.5.2,1,.5,1.5.7s1,.4,1.4.5c2,.5,3.1,1,3.1,1Z"/>
        </g>
        <path class="cls-7" d="m34.9,56.8c-1.3-4.6-3.6-30.6-12.1-28.3-8,2.4,2.3,15.8,4.3,18.8-3-4-15.8-16.2-19.7-6.4-2.9,6.9,9.8,10.7,13.7,14.1-3.7.4-14.8-.7-16.7,4.5-1.6,4.1,3.5,5.2,6.5,5.4,9.5.4,16-4.1,23.8-7.8"/>
        <g>
          <path class="cls-5" d="m26.7,39.4s-.2-.2-.5-.6c-.3-.4-.7-1-1.1-1.7-.9-1.5-1.8-3.5-2.4-5.6-.7-2.1-1.1-4.3-1.2-6-.1-.8-.1-1.6-.1-2.1s.1-.8.1-.8c0,0,.2.2.5.6.3.4.7,1,1.1,1.7.9,1.5,1.8,3.5,2.4,5.6.7,2.1,1.1,4.3,1.2,6,.1.8.1,1.6.1,2.1s-.1.8-.1.8Z"/>
          <path class="cls-5" d="m16.6,46.8s-.3-.1-.7-.2c-.4-.2-1-.4-1.7-.8-.3-.2-.7-.4-1.1-.7-.4-.3-.7-.5-1.1-.8-.7-.6-1.4-1.2-2.1-1.9-.3-.3-.7-.6-1-1l-.9-.9-.9-.9c-.3-.3-.6-.5-.8-.8s-.5-.5-.7-.7-.4-.4-.6-.5l-.5-.5h.7c.2,0,.5,0,.8.1.2,0,.3,0,.5.1.2,0,.4.1.5.2.4.1.8.3,1.2.4.4.2.8.4,1.3.7.4.3.9.5,1.2.9.4.3.8.7,1.2,1,.7.7,1.4,1.5,1.9,2.2.3.4.5.7.8,1.1.2.3.4.7.6,1,.4.6.7,1.2.9,1.6.4.1.5.4.5.4Z"/>
          <path class="cls-5" d="m14.1,59.9s-.2.1-.6.3c-.4.2-.9.4-1.6.5-.7.2-1.4.3-2.2.5-.8.1-1.6.2-2.5.2-.9.1-1.7.1-2.5.1-.4,0-.8-.1-1.2-.1s-.7,0-1.1-.1c-.7-.1-1.2-.2-1.7-.3-.4-.1-.7-.2-.7-.2,0,0,.2-.2.5-.4s.9-.5,1.5-.8c.3-.2.7-.3,1-.5.4-.1.8-.2,1.2-.3.8-.2,1.7-.3,2.6-.4.9,0,1.8,0,2.7.1s1.6.3,2.3.5,1.2.4,1.6.6c.5.2.7.3.7.3Z"/>
        </g>
      </g>
      <g>
        <g>
          <path class="cls-11" d="m161.6,50.8c9.7,0,9.7-15,0-15s-9.6,15,0,15h0Z"/>
          <g class="cls-3">
            <path class="cls-8" d="m161.6,48.3c6.4,0,6.4-10,0-10s-6.4,10,0,10h0Z"/>
          </g>
          <path class="cls-1" d="m159.3,43.6c2.4,0,2.4-3.8,0-3.8s-2.4,3.8,0,3.8h0Z"/>
        </g>
        <path class="cls-9" d="m184.5,44.9s2.8,1.6,5.7,3.1c.7.4,1.4.8,2.1,1.2.3.2.6.4.9.6.3.2.6.4.8.6,1,.7,1.6,1.2,1.6,1.2,0,0-.8.3-1.9.7-.3.1-.6.2-.9.3s-.6.3-1,.4c-.7.3-1.3.6-2,1-2.8,1.4-5.7,2.9-5.7,2.9-3.3,1.7-7.4.4-9.2-3-1.7-3.3-.4-7.4,3-9.2,2.2-.9,4.6-.8,6.6.2h0Z"/>
        <path class="cls-6" d="m150.9,57.7c3.4,0,3.4-5.2,0-5.2-3.4,0-3.4,5.2,0,5.2h0Z"/>
      </g>
      <g>
        <path class="cls-5" d="m41.5,46.7c25.1-1.4,108.6-46.6,99.6,11.9-6.8,47.9-95,25.9-99.6-11.9"/>
        <g class="cls-2">
          <path class="cls-10" d="m130.9,57.1c-.1.7-.2,1.3-.4,2-.2.7-.4,1.3-.7,1.9-.3.6-.5,1.3-.8,1.9s-.6,1.2-1,1.8c-1.4,2.3-3.1,4.5-5.1,6.4-1,.9-2.1,1.8-3.4,2.5-.3.2-.7.3-1,.4-.4.1-.7.2-1.1.3-.8.2-1.6.1-2.4-.1-.8-.3-1.5-.7-2.1-1.4-.3-.3-.5-.6-.7-1-.2-.3-.3-.7-.5-1-.3-.7-.5-1.4-.6-2.1-.2-.7-.2-1.4-.3-2.1l1.5.4c-1.5,1.8-3,3.5-4.6,5.2s-3.4,3.2-5.4,4.5c-.5.3-1,.6-1.6.8-.6.2-1.2.4-1.8.4-.6.1-1.3-.1-1.8-.4-.6-.3-1-.8-1.4-1.3-.2-.3-.3-.5-.5-.8l-.4-.8c-.2-.6-.4-1.1-.5-1.7-.3-1.1-.4-2.3-.5-3.5l.7.1c-.6,1.7-1.3,3.4-2.6,4.9-.3.4-.6.7-1,1s-.8.6-1.3.8c-.5.2-1,.3-1.5.4-.5,0-1.1,0-1.6-.2-1-.3-1.8-1.1-2.5-1.8-.6-.8-1.1-1.7-1.4-2.6-.7-1.8-.9-3.8-.8-5.7l1.4.8c-1.4,1-2.9,1.9-4.5,2.8-.8.4-1.6.8-2.4,1.2-.8.4-1.7.7-2.7.9-.5.1-1,.2-1.5.2s-1.1-.1-1.6-.3c-.6-.2-1.1-.5-1.5-.9s-.7-.9-.9-1.4-.3-1-.4-1.5c-.1-.5-.1-1-.1-1.4,0-.9.1-1.8.2-2.7l1.9.6c-.2.4-.4.8-.7,1.2-.3.4-.6.8-.9,1.1-.6.7-1.5,1.3-2.4,1.7-.5.2-1,.3-1.5.3-.5.1-1,0-1.5-.1s-1-.2-1.4-.4c-.4-.2-.9-.4-1.3-.7-.8-.5-1.4-1.2-2-2-.5-.7-1-1.5-1.3-2.4-.2-.4-.3-.9-.4-1.3-.1-.4-.2-.9-.2-1.3v-1.3c0-.5.1-.9.2-1.3l.5.6-1.2-.1c-.4-.1-.8-.1-1.2-.2-.4-.1-.8-.2-1.2-.4l-.6-.3c-.2-.1-.4-.2-.5-.3-.3-.2-.7-.4-1-.6-.3-.2-.7-.5-1-.7-.6-.5-1.2-1-1.8-1.5v-.1h.1c.6.4,1.3.9,1.9,1.3.3.2.7.4,1,.6.3.2.7.3,1,.5.2.1.4.1.5.2l.5.2c.4.1.7.2,1.1.2s.7.1,1.1.1h1.1c.3,0,.5.2.5.6h0c0,.4-.1.8-.1,1.2s0,.8.1,1.2.1.8.3,1.1c.1.4.3.7.4,1.1.6,1.4,1.6,2.7,2.9,3.5.3.2.6.4,1,.5.3.1.7.2,1,.3.3,0,.7.1,1,0,.3,0,.7-.1,1-.3.6-.3,1.2-.7,1.7-1.2.2-.3.5-.6.7-.9s.4-.7.6-1h0c.3-.5.9-.7,1.4-.4.4.2.6.6.5,1-.1.8-.2,1.6-.2,2.4,0,.4,0,.8.1,1.1.1.4.1.7.3,1,.1.3.3.6.5.7.2.2.4.3.7.4s.6.1.9.1.7,0,1.1-.1c.7-.1,1.5-.4,2.3-.7.8-.3,1.5-.7,2.3-1,1.5-.8,2.9-1.7,4.4-2.6h0c.4-.3,1-.2,1.3.3.1.2.2.4.1.6-.1.9-.1,1.7,0,2.5s.2,1.7.5,2.5c.5,1.6,1.4,3.1,2.8,3.7.7.3,1.4.3,2.2,0,.4-.1.7-.3,1-.6.3-.2.6-.5.9-.8,1.2-1.3,2-2.9,2.7-4.5h0c.1-.2.3-.3.5-.2.1.1.2.2.2.3.1,1.1.2,2.3.4,3.4.1.6.3,1.1.4,1.6l.3.8c.1.2.3.5.4.7.3.4.7.8,1.2,1.1.4.2,1,.3,1.5.3s1-.2,1.5-.4c.5-.2,1-.5,1.4-.8.9-.6,1.8-1.4,2.6-2.2.8-.8,1.6-1.6,2.3-2.5,1.5-1.7,2.8-3.6,4.2-5.4.3-.4.8-.4,1.2-.2.2.1.3.3.3.5v.1c.1.6.2,1.3.3,1.9s.3,1.2.5,1.8c.1.3.2.5.4.8.2.2.3.5.5.7.3.4.8.7,1.2.9.5.1,1,.2,1.6.1.3,0,.6-.2.8-.2.3-.1.6-.2.8-.4,1.1-.5,2.2-1.3,3.2-2.1,1-.8,1.9-1.8,2.8-2.7.9-1,1.7-2,2.5-3.1s1.5-2.2,2.1-3.4c.6-1.2,1.1-2.4,1.4-3.7,0-.1.1-.1.1-.1.8.1.9.2.8.2Z"/>
        </g>
      </g>
    </g>
  </g>
</svg>