<?xml version="1.0" encoding="UTF-8"?>
<svg id="_Слой_2" data-name="Слой 2" xmlns="http://www.w3.org/2000/svg" viewBox="0 0 143.98 122.99">
  <defs>
    <style>
      .cls-1 {
        fill: #fff;
      }

      .cls-2 {
        opacity: .2;
      }

      .cls-2, .cls-3 {
        fill: none;
      }

      .cls-4 {
        fill: #a64355;
      }

      .cls-5 {
        fill: #e1788a;
      }

      .cls-6 {
        fill: #c52370;
      }

      .cls-3 {
        opacity: .7;
      }

      .cls-7 {
        fill: #5e4f44;
      }

      .cls-8 {
        fill: #dd9c25;
      }

      .cls-9 {
        fill: #222221;
      }

      .cls-10 {
        fill: #38302b;
      }

      .cls-11 {
        fill: #df5870;
      }
    </style>
  </defs>
  <g id="_Слой_5" data-name="Слой 5">
    <g>
      <g>
        <path class="cls-7" d="m92.1,88.3c-3.16,4.4-6.5,9.1-7.13,14.8-.63,5.9,4.15,10.9,7.67,14.5,1.08,1.1,2.71-.7,1.62-1.8-3.16-3.2-6.68-6.8-7.04-11.7-.36-5.1,3.88-10.4,6.5-14.1.9-1.2-.72-3-1.62-1.7h0Z"/>
        <path class="cls-7" d="m90.48,118.3c.09-1.4-.09-4.4,1.44-4.9s3.88,1.4,5.32,2c1.35.5,1.98-1.9.63-2.4-2.17-.7-4.87-3-7.22-1.7s-2.35,4.6-2.53,7.1c0,1.5,2.26,1.5,2.35-.1h0Z"/>
      </g>
      <g>
        <path class="cls-11" d="m25.07,62.6c23.46-7,32.48-44,55.93-51,21.65-7,47.81-1,51.42,25,3.61,30-11.73,51-36.99,57-27.06,6-44.21-6-62.25-26-2.71-2-4.51-4-6.32-6"/>
        <path class="cls-5" d="m91.02,74.7c-5.95.5-12.36,1.4-17.68,4.4-5.14,2.9-7.58,7.5-8.21,13.1,8.84,3.3,18.67,4.1,30.31,1.5,7.67-1.8,14.43-5,20.03-9.5,1.8-11-18.4-10-24.45-9.5Z"/>
        <path class="cls-5" d="m61.07,26.7c-.27,1.4.09,2.6,1.8,3.1,2.07.6,4.42-.4,5.95-2.1.36-.4.99.1.72.6-1.98,3.1-4.15,7.9,1.08,9,3.43.7,6.41-1.1,8.84-3.6.36-.4.81,0,.72.5-.45,2.6-1.08,6.4.27,8.8,2.17,3.7,6.68,2.2,8.84-.6.36-.4.81,0,.72.5-.36,2.2-1.26,5.6.09,7.5,2.71,4,6.77.7,8.75-2.3.27-.4.9-.3.81.3-.18,2.1-.72,4.4-.36,6.5.36,1.8,1.8,3.6,3.79,2.7,1.35-.6,2.35-1.6,3.34-2.7.27-.3.72-.1.81.4.18,2.5-.27,6.7,2.17,8,4.06,2.3,6.77-1.8,8.84-5.1.27-.4.81-.3.81.3.18,2.1-.27,5.5,1.35,7,3.34,2.9,4.87-1.7,6.22-4.1.18-.4.72-.3.81.1.45,1.4,1.08,2.5,1.8,3.5,3.16-8.1,4.24-17.7,2.98-28.4-3.61-26-29.77-32-51.42-25-7.76,2.4-13.98,8.2-19.76,15.1Z"/>
      </g>
      <g>
        <g>
          <path class="cls-10" d="m113.93,45.8c8.75,0,8.75-15,0-15s-8.66,15,0,15h0Z"/>
          <g class="cls-3">
            <path class="cls-7" d="m113.93,43.3c5.77,0,5.77-10,0-10s-5.77,10,0,10h0Z"/>
          </g>
          <path class="cls-1" d="m115.74,38.2c2.17,0,2.17-3.8,0-3.8-2.17.1-2.17,3.8,0,3.8h0Z"/>
        </g>
        <path class="cls-8" d="m134.05,38.4l9.92,6-9.92,6c-2.98,1.8-6.77.6-8.39-2.7-1.62-3.3-.54-7.5,2.44-9.3,1.89-1.1,4.15-1,5.95,0Z"/>
        <path class="cls-6" d="m105.18,51.4c3.07,0,3.07-5.2,0-5.2-3.07-.1-3.07,5.2,0,5.2h0Z"/>
      </g>
      <g>
        <path class="cls-11" d="m95.8,12.6s-.09-.7-.18-1.8c-.09-.5-.09-1.1-.27-1.7-.09-.6-.27-1.3-.45-2-.09-.3-.18-.7-.27-1-.09-.3-.18-.7-.27-1-.18-.6-.45-1.2-.63-1.7s-.45-.9-.54-1.1c-.18-.3-.27-.4-.27-.4,0,0,.09.1.36.3.27.2.63.4.99.8s.81.8,1.26,1.3c.27.2.45.5.72.8.18.3.45.6.72.8.45.6.9,1.2,1.26,1.8.36.6.72,1.2.99,1.6.54.9.9,1.6.9,1.6.72,1.2.36,2.8-.72,3.5-1.08.8-2.53.4-3.16-.8-.27-.3-.36-.7-.45-1h0Z"/>
        <path class="cls-11" d="m96.25,12.3l2.26-12.3,2.26,12.3c.27,1.4-.54,2.7-1.8,3-1.26.3-2.44-.6-2.71-2-.09-.3-.09-.6,0-1Z"/>
        <path class="cls-11" d="m96.61,11.7s.54-.6,1.26-1.6c.36-.5.81-1,1.35-1.6.54-.6,1.08-1.2,1.62-1.9.63-.6,1.17-1.1,1.71-1.7.27-.3.54-.5.81-.7.27-.2.54-.4.81-.6.99-.7,1.62-1.1,1.62-1.1,0,0-.45.7-1.08,1.7-.18.2-.36.5-.54.8-.18.3-.36.6-.54,1-.36.7-.72,1.4-.99,2.1s-.54,1.5-.81,2.2c-.27.7-.45,1.4-.63,2-.36,1.2-.63,2-.63,2-.45,1.3-1.71,2-2.98,1.5-1.17-.5-1.8-1.9-1.35-3.3,0-.3.09-.6.36-.8h0Z"/>
      </g>
      <g>
        <g>
          <path class="cls-4" d="m29.58,59s-.27-.2-.9-.7c-.27-.2-.63-.5-.99-.7-.36-.3-.81-.6-1.35-.9-.99-.6-2.17-1.3-3.43-2.2-.63-.4-1.26-.9-1.98-1.4-.63-.5-1.35-1.2-1.89-1.7-.63-.5-1.17-1.1-1.8-1.6-.54-.6-1.17-1.2-1.71-1.7-.54-.6-1.08-1.1-1.53-1.6s-.9-.9-1.35-1.4c-.81-.8-1.53-1.4-1.98-1.8s-.72-.7-.72-.7l-.18-.1c-1.8-1.6-2.07-4.5-.63-6.4,1.44-2,4.06-2.3,5.77-.7.36.3.63.7.9,1.1,0,0,.18.4.63,1.1.36.7.99,1.7,1.53,2.8.27.6.63,1.2.9,1.9.27.6.63,1.3.99,2,.36.7.63,1.4.99,2.1.36.7.81,1.5,1.17,2.2.45.8.72,1.4,1.17,2s.81,1.3,1.26,1.8c.9,1.2,1.8,2.3,2.62,3.3s1.44,1.8,1.8,2.4c.54.6.72.9.72.9Z"/>
          <path class="cls-4" d="m25.34,60.5s-1.26.1-3.25.3c-.45,0-.99.1-1.53.2-.54,0-1.17.2-1.71.2-1.17.2-2.44.4-3.7.5-1.26.2-2.53.5-3.7.7-1.17.2-2.26.5-3.25.7-1.89.4-3.16.7-3.16.7h-.09c-2.26.5-4.42-1.2-4.87-3.6-.45-2.5.99-4.9,3.25-5.4.54-.1,1.08-.1,1.62,0,0,0,1.26.3,3.25.7.99.2,2.07.5,3.25.8,1.17.3,2.44.6,3.79,1,1.26.4,2.53.8,3.79,1.1.63.2,1.17.3,1.71.5.54.2.99.4,1.53.5,1.8.7,3.07,1.1,3.07,1.1Z"/>
        </g>
        <path class="cls-11" d="m31.3,61.8c-.72-7-.54-25.6-8.12-24.7-11.91,1.3,1.35,15,2.26,16.7-2.89-2-14.25-10.5-16.24-2.5-1.62,7.2,9.2,9,13.35,8.8-2.89,0-12.81-.2-14.89,4-1.62,3.5,1.08,5,3.61,5.8,7.94,2,14.89-3,20.75-7.8"/>
        <g>
          <path class="cls-4" d="m26.43,50.5s-.27-.2-.63-.7c-.18-.2-.45-.5-.72-.8s-.54-.7-.81-1.1c-.27-.4-.54-.9-.9-1.4-.27-.5-.54-1.1-.81-1.6l-.81-1.8c-.27-.6-.45-1.3-.72-1.9-.9-2.6-1.53-5.2-1.8-7.2-.18-1-.27-1.9-.36-2.5-.09-.6-.09-1-.09-1,0,0,.18.3.54.8.36.5.81,1.2,1.26,2.1.99,1.8,2.07,4.3,2.89,6.8.18.6.45,1.3.63,1.9s.36,1.2.54,1.8c.18.6.36,1.2.45,1.7.18.5.27,1.1.45,1.6.18,1,.45,1.8.63,2.4.27.6.27.9.27.9Z"/>
          <path class="cls-4" d="m21.91,56.8s-.36,0-.99-.1c-.27,0-.72-.1-1.08-.2-.45-.1-.9-.3-1.44-.5-.99-.4-2.17-1-3.25-1.6-.54-.3-1.17-.6-1.71-1-.54-.3-1.17-.7-1.71-.9-.63-.3-1.26-.6-1.89-.9-.63-.3-1.26-.6-1.8-.9-.54-.3-1.17-.6-1.62-1-.54-.3-.99-.6-1.44-.9s-.9-.6-1.26-.8c-.36-.2-.72-.4-.99-.6-.54-.4-.81-.6-.81-.6h.99c.63,0,1.53.1,2.53.3.54.1,1.08.3,1.71.4.54.2,1.17.4,1.8.6s1.26.5,1.89.7c.36.1.63.3.99.4l.99.4c.72.3,1.35.7,1.98,1.1s1.17.8,1.71,1.3c1.08.8,1.98,1.7,2.8,2.4.36.4.72.7,1.08,1s.63.5.9.7c.36.4.63.7.63.7Z"/>
          <path class="cls-4" d="m18.58,66.3s-.18.2-.63.4c-.36.2-.99.6-1.71.8-.72.3-1.53.6-2.44.8s-1.8.4-2.8.6c-.45.1-.9.2-1.35.2-.45.1-.9.1-1.35.2-.45.1-.9.1-1.26.1-.36.1-.81.1-1.17.1s-.72.1-.99.1-.54.1-.81.1h-.72s.18-.2.45-.6c.18-.2.36-.4.63-.6.27-.2.54-.5.9-.7s.72-.4,1.08-.7c.36-.2.81-.4,1.26-.6.45-.2.9-.4,1.44-.5.45-.1.99-.2,1.44-.3.99-.1,1.98-.2,2.89-.2s1.8.1,2.53.1c.72.1,1.35.2,1.8.3.54.3.81.4.81.4Z"/>
        </g>
      </g>
      <g>
        <path class="cls-4" d="m36.62,52.8c13.35-2.8,74.25-35.3,61.17,10.8-7.13,26.2-59.99,16.3-63.78-9.4"/>
        <g class="cls-2">
          <path class="cls-9" d="m92.46,55c-.09,1.1-.36,2.2-.72,3.2s-.72,2.1-1.17,3c-.45,1-.99,1.9-1.53,2.9-.54.9-1.17,1.8-1.8,2.7s-1.35,1.7-2.26,2.4c-.45.4-.9.7-1.44.9s-1.26.4-1.98.1c-.72-.3-1.17-1-1.44-1.5-.27-.6-.45-1.2-.54-1.8l-.09-.9-.09-.9v-1.7l1.17.5c-1.26,1.5-2.62,2.9-4.06,4.3-.72.7-1.44,1.4-2.17,2s-1.53,1.3-2.35,1.8c-.36.3-.81.5-1.26.7s-.9.4-1.44.5-1.08,0-1.53-.3-.81-.9-.99-1.4-.27-1.1-.36-1.6-.09-1.1-.09-1.6v-1.6l.09-1.6,1.17.3-.36,1.1c-.09.4-.27.7-.45,1s-.36.7-.63,1c-.27.3-.45.6-.72.9-.27.3-.54.6-.9.7-.36.2-.63.4-.99.5-.18.1-.36.1-.54.2l-.63.1c-.36.1-.81-.1-1.17-.1-.36-.1-.72-.3-1.08-.5-.36-.2-.72-.5-.9-.8l-.45-.5c-.09-.2-.18-.3-.36-.5-.09-.2-.18-.4-.27-.5l-.18-.6c-.18-.4-.27-.8-.36-1.2l-.09-.6v-.6c0-.4-.09-.8,0-1.2l.09-1.2,1.71.8-.63.8c-.18.3-.45.5-.63.8s-.45.5-.72.7-.54.4-.81.6c-.27.2-.54.4-.81.5-.27.2-.54.3-.9.5-.27.1-.63.2-.99.3s-.72.1-1.08.2c-.36,0-.72-.1-1.08-.1-.36-.2-.72-.2-1.08-.6-.18-.1-.36-.3-.45-.4l-.36-.5c-.27-.3-.36-.7-.54-1.1-.18-.4-.18-.7-.27-1.1-.09-.4,0-.7-.09-1.1v-.5l.09-.5.09-1,1.26.6-.54.6c-.18.2-.36.4-.54.5-.18.2-.36.3-.63.5-.18.2-.45.3-.63.4-.27.1-.45.2-.72.3s-.54.1-.81.2h-.81c-.27-.1-.54-.1-.81-.2-.27-.1-.45-.2-.72-.4-.27-.1-.45-.3-.63-.5s-.36-.4-.45-.6c-.18-.2-.27-.5-.45-.7s-.27-.5-.36-.7-.18-.5-.27-.7c-.18-.5-.27-1-.45-1.5q0-.1.09-.1s.09,0,.09.1h0c.18.5.36.9.63,1.4.09.2.18.4.36.6.09.2.27.4.36.6.18.2.27.4.45.6l.45.5c.36.3.72.5,1.08.6.18.1.36.1.54.1s.36,0,.54-.1.36-.1.54-.2c.18-.1.36-.2.54-.3s.36-.2.54-.4c.18-.1.36-.3.45-.5l.45-.5.45-.5c.27-.3.72-.4.99-.1.18.2.27.4.27.6v1.9c0,.3,0,.6.09.8.09.3.09.5.18.8.09.2.18.5.27.6.09.1.09.2.18.2l.27.2c.09.1.36.1.54.2.18,0,.36.1.63,0,.27,0,.45,0,.72-.1s.45-.1.72-.3c.27-.1.45-.2.72-.4.27-.1.45-.3.63-.5s.45-.3.63-.5.45-.4.63-.6c.18-.2.36-.4.54-.6l.54-.7c.36-.5.99-.5,1.35-.1.27.2.36.6.36.9h0l-.09,1c-.09.3,0,.6,0,.9v.5l.09.4c0,.3.09.6.18.9l.18.4c.09.1.09.2.18.4.09.1.09.3.18.4l.27.3c.18.2.36.3.54.5.18.1.45.2.63.3.27,0,.45.1.72.1h.36l.36-.1c.27,0,.45-.2.72-.3s.45-.3.72-.5.36-.4.63-.7c.18-.2.36-.5.54-.8s.36-.5.45-.8l.45-.9v-.1c.18-.3.54-.5.81-.3.27.1.36.4.36.7l-.27,1.5c0,.5-.09,1-.18,1.5v1.5c0,.5.09,1,.18,1.4.18.4.36.8.63,1.1.27.2.72.3,1.08.3.45,0,.81-.2,1.26-.4s.81-.4,1.17-.7c1.53-1.1,2.98-2.4,4.24-3.9,1.26-1.5,2.44-3,3.61-4.6.18-.3.63-.4.9-.1.18.1.27.3.27.5v.1c0,.5.09,1.1.09,1.6l.09.8.18.7c.09.5.27.9.45,1.3.18.3.36.6.63.7.18.1.54.1.9-.1.36-.1.72-.4,1.08-.6.72-.6,1.44-1.3,2.07-2,1.35-1.5,2.53-3.2,3.52-5,.54-.9.99-1.8,1.53-2.8.45-1,.81-1.9,1.17-3,0-.1.09-.1.09-.1.18,0,.18.1.18.1Z"/>
        </g>
      </g>
      <g>
        <path class="cls-7" d="m70.27,87c-1.89,5.5-4.42,11.8-3.61,17.8.99,6.7,5.59,11.8,9.83,16.4,1.08,1.1,2.62-.6,1.62-1.8-3.79-4.1-7.85-8.4-9.11-14.3-1.17-5.7,1.62-12.2,3.43-17.4.54-1.5-1.71-2.2-2.17-.7h0Z"/>
        <path class="cls-7" d="m73.52,121.8c.18-1.5-.18-3.7.72-4.8,1.35-1.6,4.6.5,5.95,1.2s2.44-1.5,1.17-2.2c-2.26-1.2-5.32-3.1-7.85-1.5-2.44,1.5-1.98,4.6-2.26,7.2-.18,1.7,2.07,1.7,2.26.1h0Z"/>
      </g>
    </g>
  </g>
</svg>