<?xml version="1.0" encoding="UTF-8"?>
<svg id="_Слой_2" data-name="Слой 2" xmlns="http://www.w3.org/2000/svg" viewBox="0 0 124.1 165.9">
  <defs>
    <style>
      .cls-1 {
        fill: #fff;
      }

      .cls-2 {
        opacity: .2;
      }

      .cls-2, .cls-3 {
        fill: none;
      }

      .cls-4 {
        fill: #67b5be;
      }

      .cls-3 {
        opacity: .7;
      }

      .cls-5 {
        fill: #77c3ca;
      }

      .cls-6 {
        fill: #4d878e;
      }

      .cls-7 {
        fill: #d36ea1;
      }

      .cls-8 {
        fill: #5e4f44;
      }

      .cls-9 {
        fill: #db9022;
      }

      .cls-10 {
        fill: #222221;
      }

      .cls-11 {
        fill: #38302b;
      }
    </style>
  </defs>
  <g id="_Слой_3" data-name="Слой 3">
    <g>
      <g>
        <g>
          <path class="cls-6" d="m28.6,132.3c-6.7-.7-14.2-2.1-20.6-.8-4.6.9-6.2-5.7-1.6-6.9.5-.1.9-.1,1.3-.1,7.5.9,14.1,4.7,20.9,7.8h0Z"/>
          <path class="cls-6" d="m27.1,136.8c-7.6,1.7-13.1,6.6-19.6,10.7-4,2.4-7.7-3.4-3.8-6,7.2-2.3,15.5-5.4,23.4-4.7h0Z"/>
        </g>
        <path class="cls-4" d="m40.8,129c-5.7-4-18-11.7-25.3-9.7-7.7,2.2-.2,9,3.7,10.8-3.5,0-17.8,1.1-13.2,8.1,2.4,3.7,9.7,1.5,13.2.2-2.4,1.3-12.1,5.1-9.2,9.7,2,3.3,8.8,1.3,11.2,0,7.5-3.5,19.6-9.2,21.6-18"/>
        <g>
          <path class="cls-6" d="m19.8,124.5c-4.5.1-8.5-3.1-10.5-7,4.4.6,7.9,3.5,10.5,7h0Z"/>
          <path class="cls-6" d="m12.3,136.8c-3.8,2-8.5,2.1-12.3,0,3.9-2.1,8.5-2.1,12.3,0h0Z"/>
          <path class="cls-6" d="m16.1,146c-2.2,4.1-5.9,6.6-9.7,9,.4-4.9,5.1-8.3,9.7-9h0Z"/>
        </g>
      </g>
      <g>
        <path class="cls-8" d="m90.5,129.1c-2.3,5-5,10.6-4.4,16.3.6,5.5,3.9,10.4,6.8,14.9.8,1.4,3,.1,2.2-1.3-2.6-4.1-5.8-8.7-6.4-13.7-.6-5.2,1.9-10.4,4-15,.6-1.4-1.6-2.6-2.2-1.2h0Z"/>
        <path class="cls-8" d="m89.3,161c.3-1.2.6-2.4,1-3.5.1-.2,0-.1.1-.3.1-.1.1-.2.2-.3.1-.1.2-.3.2-.4s.1-.1.1-.2q-.1.1,0,0l.2-.2q.1-.1,0,0c.1,0,.1-.1.2-.1q.1-.1,0,0,.1,0,.2-.1h.2c-.1,0-.2,0-.1,0h.4q.1,0,0,0h.2c.3.1.6.2.8.3.5.2,1.1.5,1.7.8,1.2.6,2.3,1.4,3.6,1.8.6.2,1.4-.3,1.5-.9.2-.7-.2-1.3-.9-1.5-.1,0-.2-.1-.3-.1.2.1,0,0-.1,0-.3-.1-.5-.3-.8-.4-.5-.3-1-.6-1.5-.8-1.1-.6-2.2-1.2-3.3-1.5-1.2-.3-2.3-.2-3.3.5s-1.5,1.9-1.9,3-.7,2.2-1,3.4c-.3,1.3,2.1,2,2.6.5h0Z"/>
      </g>
      <g>
        <path class="cls-4" d="m94.3,132.3c26.4-14.1,33.4-51.9,28.2-79.2-5.3-26.4-20.2-39.6-46.6-40.5-25.5-.9-46.6,15-41.4,43.1,4.4,25.5,11.4,35.2,1.8,60.7-7,18.5.9,21.1,18.5,22,14,.9,27.2.1,39.5-6.1"/>
        <path class="cls-5" d="m118.7,88.4c-3.7-5-11.2-5-16.6-3-8.5,3.1-15.5,9.7-19.9,17.6-3.5,6.4-6,14.2-4.7,21.5.9,5,3.5,8.9,7.1,11.6,3.3-.9,6.5-2.2,9.6-3.7,13.9-7.4,22.5-21.5,26.6-37.1,0-2.5-.7-4.9-2.1-6.9Z"/>
        <path class="cls-5" d="m39.7,80.7c4.5,1.9,6.1-3.5,6.3-6.8,0-.5.8-.7,1-.1.6,2.5,2.1,7.3,5.5,6.9,4.2-.5,5.1-4.6,5.2-8.1,0-.6.8-.7,1-.1,1.1,3.1,3.3,8.7,7.6,7.2,3.5-1.2,3.4-5.6,3.4-8.7,0-.6.8-.6,1-.1,1.1,3.1,4,8.4,8.2,6.6,3.4-1.4,3.1-5.6,3.5-8.6.1-.4.6-.5.8-.2,2.3,2.3.3,6.8,4.8,7,5.2.2,6.6-4.9,6.5-9.2,0-.6.8-.7,1-.1.9,3.4,3.8,7.6,7.8,7.2,5.3-.5,5.5-5.2,5.5-9.4,0-.6.9-.7,1-.1.4,2.1,2.6,8,5.7,6.7,2.4-1,1.8-5,1.8-7.1,0-.5.7-.7.9-.3,1.4,2.9,3.3,5.1,5.8,6.2-.1-5.7-.6-11.3-1.6-16.5-5.3-26.4-20.2-39.6-46.6-40.5-25.5-.9-46.6,15-41.4,43.1,1.8,10.2,4,17.9,5.3,25Z"/>
      </g>
      <g>
        <path class="cls-4" d="m69.9,14.7c.9-3.4-.3-7.5-1.2-11,2.7,3.4,5.4,6.7,6.2,11.3.5,4.1-5.8,3.8-5-.3h0Z"/>
        <path class="cls-4" d="m70.6,15.7c1.4-5,2.3-10.3,3.1-15.7.8,5.3,1.7,10.7,1.9,16.3-.1,3.8-5.9,3.1-5-.6h0Z"/>
        <path class="cls-4" d="m71.2,16.5c2-4,4.1-8.4,7.3-11.6-1.8,4.2-2.1,8.5-2.5,13-.6,3.9-6.3,2.3-4.8-1.4h0Z"/>
      </g>
      <g>
        <g>
          <path class="cls-11" d="m61.8,51.4c3.9,0,7.7-3.4,7.5-7.5s-3.3-7.5-7.5-7.5c-3.9,0-7.7,3.4-7.5,7.5.2,4.1,3.3,7.5,7.5,7.5h0Z"/>
          <g class="cls-3">
            <path class="cls-8" d="m61.8,48.9c2.6,0,5.1-2.3,5-5s-2.2-5-5-5c-2.6,0-5.1,2.3-5,5,.1,2.7,2.2,5,5,5h0Z"/>
          </g>
          <path class="cls-1" d="m63.8,43.8c2.4,0,2.4-3.8,0-3.8s-2.4,3.8,0,3.8h0Z"/>
        </g>
        <path class="cls-9" d="m37.8,57.9c-4.6-.6-8.6-2-12.5-3.3,3.2-2.6,6.4-5.2,8.7-8,2.4-3.1,6.9-3.7,10.1-1.3,3.1,2.4,3.7,6.9,1.3,10.1-1.9,2.3-4.8,3.1-7.6,2.5h0Z"/>
        <path class="cls-7" d="m78.6,58.4c3.4,0,3.4-5.2,0-5.2s-3.4,5.2,0,5.2h0Z"/>
      </g>
      <g>
        <path class="cls-6" d="m22.1,138.5c8.8-12.3,3.5-32.6,5.3-46.6,3.5-21.1,23.8-28.2,37.8-9.7,22.9,31.7-11.4,63.4-44.9,57.2"/>
        <g class="cls-2">
          <path class="cls-10" d="m54.5,81.2c4,3.9,8.5,8.5,7.9,14.5,0,.4-.4.7-.8.7-3.1.3-6.2-1.4-7.9-3.9l1.5-1c1.4,2.4,3.4,5,4.7,7.7.5,1.2,1.2,2.5,1,3.9-1.2,5.2-6,5.3-9.1,1.5-.2-.3.1-.7.4-.5,1.9.9,3.7,2.3,5,4.1,2.9,3.9,1.4,10.7-4.3,10.5-2.4-.2-4.5-1.4-6.2-2.8l1.3-1.5c3.1,3.1,5.1,9,1.5,12.6-2.6,2.2-6.1-.3-7.7-2.3l1.6-.9c2,5.1-.4,12.7-7.1,10.5-1.6-.6-2.9-1.7-4.1-2.9v-.1h.1c1.3,1,2.6,2,4.1,2.3,5.7,1.4,6.8-5,5.1-9.1-.3-.9.9-1.7,1.6-.9,6.9,7,7.6-3.9,3.4-7.6-.9-.9.4-2.3,1.3-1.5,1.5,1.3,3.3,2.3,5,2.5,4.3.5,5.4-5.1,3.4-8.1-1-1.8-2.6-3.1-4.4-4.1l.4-.5c1.6,2.2,5.4,3.8,7,.7.4-.8.8-1.7.6-2.6-1-3.8-4.4-6.7-6.3-10.1-.5-.9.9-1.8,1.5-1,1.7,2.2,3.7,3.4,6.5,3.3l-.8.7c.7-5.6-3.3-10-6.4-14.2,0,.1.1,0,.2.1h0Z"/>
        </g>
      </g>
      <g>
        <path class="cls-8" d="m69.5,132.1c-3.2,4.6-7.1,10.1-6.3,16,.4,2.4,1.5,4.6,2.8,6.7,2,3.1,4.4,5.9,6.7,8.8,1,1.2,2.8-.5,1.8-1.8-2.1-2.6-4.3-5.2-6.1-8-1.2-1.9-2.4-3.9-2.7-6.1-.7-5.2,3.2-10.4,6-14.3.9-1.3-1.3-2.6-2.2-1.3h0Z"/>
        <path class="cls-8" d="m69.5,164.5c0-.1,0-.3,0,0,0,.2,0-.1,0-.2,0-.2.1-.4.1-.6.1-.5.2-1,.3-1.5.1-.6.3-1.1.4-1.6.1-.2.2-.5.2-.7.1-.2-.1.2,0-.1.1-.1.1-.2.2-.3,0-.1.1-.2.2-.2.1-.2-.2.2,0,0q.1-.1,0,0c.2-.2-.2,0,0,0,.1,0,.3-.1.1,0-.2,0,.1,0,.2,0s.4,0,.2,0,.2,0,.3,0c.5.1,1,.3,1.5.5.2.1.1,0,0,0,.1,0,.1.1.2.1s.2.1.3.1c.3.1.6.3.8.4,1,.5,1.9,1,2.9,1.4.6.2,1.4-.3,1.5-.9.2-.7-.2-1.3-.9-1.5-.3-.1.2.1,0,0-.1,0-.2-.1-.3-.1-.2-.1-.4-.2-.6-.3-.5-.3-1-.5-1.5-.8-1.1-.6-2.3-1.1-3.5-1.4-1.3-.2-2.5-.1-3.3,1.1-.7.9-1,2.1-1.3,3.2-.3,1.2-.5,2.4-.6,3.6-.1.7.6,1.2,1.2,1.2.9-.2,1.3-.8,1.4-1.4h0Z"/>
      </g>
    </g>
  </g>
</svg>