<?xml version="1.0" encoding="UTF-8"?>
<svg id="_Слой_2" data-name="Слой 2" xmlns="http://www.w3.org/2000/svg" viewBox="0 0 150.61 147.96">
  <defs>
    <style>
      .cls-1 {
        fill: #b49c25;
      }

      .cls-2 {
        fill: #fff;
      }

      .cls-3 {
        opacity: .2;
      }

      .cls-3, .cls-4 {
        fill: none;
      }

      .cls-4 {
        opacity: .7;
      }

      .cls-5 {
        fill: #f6e26f;
      }

      .cls-6 {
        fill: #d36ea1;
      }

      .cls-7 {
        fill: #5e4f44;
      }

      .cls-8 {
        fill: #db9022;
      }

      .cls-9 {
        fill: #222221;
      }

      .cls-10 {
        fill: #38302b;
      }

      .cls-11 {
        fill: #f2d031;
      }
    </style>
  </defs>
  <g id="_Слой_2-2" data-name="Слой 2">
    <g>
      <g>
        <path class="cls-7" d="m90.7,116.6c-1.1,3.2-3.2,5.7-4.8,8.7-1.3,2.3-2.1,5.2-1.1,7.7,2,4.9,6.7,8.3,9.7,12.5.9,1.3,3.1.1,2.2-1.3-2.9-4.1-7.2-7.3-9.4-11.8-1.1-2.3.1-4.8,1.3-6.9,1.7-2.7,3.5-5.2,4.5-8.3.6-1.4-1.8-2.1-2.4-.6h0Z"/>
        <path class="cls-7" d="m99.1,140.7c-1.9-.7-3.7-1.5-5.7-1.9-1.1-.2-2.1-.3-3,.4-.9.7-1.3,2-1.6,3.1-.3,1.2-.5,2.4-.6,3.6,0,.7.6,1.2,1.2,1.2.7,0,1.2-.6,1.2-1.2v-.8c0-.1.1-.4,0-.2,0,.2,0-.2,0-.2,0-.1,0-.2.1-.4,0-.3.1-.5.2-.8.1-.5.2-1,.4-1.5q0-.1.1-.2s-.1.2,0,0c0-.1.1-.2.1-.3s.1-.2.2-.3l.1-.1c.1-.1-.1.1,0,.1s.1-.1.2-.2c-.1.2-.1.1,0,0,.1,0-.3.1-.1,0-.2,0-.3,0-.1,0h.2c.3,0-.2,0,0,0s.4.1.6.1c1,.2,2,.6,2.9.9s1.7.7,2.6,1c.6.2,1.4-.3,1.5-.9.6-.5.1-1.2-.5-1.4h0Z"/>
      </g>
      <path class="cls-1" d="m132.1,56.3c11.4-13,18.8,1.2,18.5,12.8-.3,15.5-15.8,34.7-30.6,39-17,3.6-24.7,1.9-14.8-14,7.9-12,11.6-31.4,24.9-38.9"/>
      <g>
        <path class="cls-11" d="m32.7,101.8c21.6-20.5,17.1-57.3,36.6-79.7,14.8-18.1,55-16.8,66.5,5.5,25.5,50.4-29.3,113.3-81.8,93.8-8.3-3.4-18.8-10.7-22.4-19.5"/>
        <path class="cls-5" d="m74.4,111.6c4.5-13.6,17.5-24.9,30.4-30.3,5.7-2.4,12.3-4.2,18.5-2.6,4.9,1.3,8.2,4.6,10.1,8.9-12,21.5-34.7,37.3-59.2,37.4-1.4-4.3-1.3-8.9.2-13.4Z"/>
        <path class="cls-5" d="m134.1,61.6c-.1-.6-1-.6-1,.1,0,3.3-1.4,8.7-5,9.8-4.7,1.5-6.5-3.5-6.8-7.2,0-.6-.9-.6-1-.1-.7,4.1-3.9,7.9-8.4,7.7-5.1-.2-6.7-3.7-7-8.2,0-.5-.8-.7-.9-.2-1.1,2.7-4.3,6.2-7.6,5.5-3.6-.8-3.4-4.2-3.8-7.1-.1-.5-.7-.7-.9-.2-.5,1.3-1,2.9-1.9,4-1.4,1.6-3.9,1.8-5.7.7-2.4-1.5-3.5-4.4-3-7.1.1-.4.2-.8.3-1.2.1-.7-.8-.8-1-.2-.1.4-.2.8-.3,1.2-.4,1.4-1,2.7-2,3.8-1.6,1.7-4.5,3.3-6.6,1.4-2.5-2.2-2.5-5.9-2.7-9,0-.6-.8-.6-1-.1-1.4,4.3-5.6,6.3-9.8,4.5-1.6-.7-2.9-1.8-3.7-3.1,3.4-11.3,7.2-25.4,15.2-34.5,14.8-18.1,55-16.8,66.5,5.5,6.6,13,7.8,26.7,5.1,39.7-4,1.9-6.5-2.2-7-5.7Z"/>
      </g>
      <g>
        <path class="cls-11" d="m101.9,7.8c2-3.3,4.7-5.9,8-7.6-1.9,2.7-3.1,6-3.2,9.1,0,1.4-1.2,2.6-2.7,2.5-2,0-3.2-2.4-2.1-4h0Z"/>
        <path class="cls-11" d="m101.3,10.3c0-3.4.5-7,1.2-10.3,1,3.3,2.2,6.3,3.7,9.3,1.6,4-4.7,5.3-4.9,1h0Z"/>
        <path class="cls-11" d="m101.1,11.9c-1.4-3.5-2.8-6.9-4.7-10.2,3.1,2.1,6,4.8,8.8,7.3,2.9,3.1-2.2,6.6-4.1,2.9h0Z"/>
      </g>
      <g>
        <g>
          <path class="cls-1" d="m28.8,97.3c-5.7-3.1-9.8-10.1-15-13.4-4.5-3-.4-9.7,4.3-7,.6.4,1,.9,1.4,1.4,4.3,5.9,4.8,13.2,9.3,19h0Z"/>
          <path class="cls-1" d="m26.4,101.9c-5-.2-10-1.8-15-1.8-1.5,0-2.9.2-4.3.6-2.2.6-4.5-.6-5.1-2.8-.6-2.2.6-4.5,2.8-5.1,2.6-.5,5.4.6,7.7,1.4,5.1,2.1,9.1,5.6,13.9,7.7h0Z"/>
        </g>
        <path class="cls-11" d="m35.4,101.3c-1.6-5.2-2.2-17.6-8.1-20-8.2-3.2-2.6,9.2-1.7,11.6-2.2-2.4-13.4-12.9-16.6-5.1-2.1,5.4,9.4,9.1,12.1,11.5-4-.2-24.2,1.9-12.2,8.1,7,3.5,22.4,1.5,27-5.1"/>
        <g>
          <path class="cls-1" d="m28.2,88.3c-3-3.7-4-8.3-4.4-13,4.1,2.8,5.4,8.3,4.4,13h0Z"/>
          <path class="cls-1" d="m16.2,91.9c-5-1.9-7.9-6.1-12.4-8.9,5.7-1.4,10.4,4.1,12.4,8.9h0Z"/>
          <path class="cls-1" d="m13.5,104.3c-4.1,2.3-9.1,2.5-13.5.7,4.2-2.3,9.2-2.5,13.5-.7h0Z"/>
        </g>
      </g>
      <g>
        <g>
          <g>
            <path class="cls-10" d="m121.2,46.1c3.9,0,7.7-3.4,7.5-7.5s-3.3-7.5-7.5-7.5c-3.9,0-7.7,3.4-7.5,7.5.2,4.1,3.3,7.5,7.5,7.5h0Z"/>
            <g class="cls-4">
              <path class="cls-7" d="m121.2,43.6c2.6,0,5.1-2.3,5-5s-2.2-5-5-5c-2.6,0-5.1,2.3-5,5,.1,2.7,2.2,5,5,5h0Z"/>
            </g>
            <path class="cls-2" d="m119.1,38.6c2.4,0,2.4-3.8,0-3.8-2.4.1-2.5,3.8,0,3.8h0Z"/>
          </g>
          <g>
            <path class="cls-10" d="m98.6,46.1c3.9,0,7.7-3.4,7.5-7.5s-3.3-7.5-7.5-7.5c-3.9,0-7.7,3.4-7.5,7.5.2,4.1,3.3,7.5,7.5,7.5h0Z"/>
            <g class="cls-4">
              <path class="cls-7" d="m98.6,43.6c2.6,0,5.1-2.3,5-5s-2.2-5-5-5c-2.6,0-5.1,2.3-5,5,.2,2.8,2.2,5,5,5h0Z"/>
            </g>
            <path class="cls-2" d="m96.5,38.7c2.4,0,2.4-3.8,0-3.8s-2.4,3.8,0,3.8h0Z"/>
          </g>
        </g>
        <path class="cls-8" d="m116.9,52.5c-.7,4.7-2.6,8.1-3.7,12.5-1.4-1.5-2.7-3.3-4-5s-2.5-3.3-3.9-4.3c-3.2-2.5-3.8-7.1-1.3-10.3,2.5-3.2,7.1-3.8,10.3-1.3,2.1,1.7,3.1,4.3,2.8,6.8l-.2,1.6h0Z"/>
        <g>
          <path class="cls-6" d="m87.4,54.5c3.4,0,3.4-5.2,0-5.2-3.4-.1-3.4,5.2,0,5.2h0Z"/>
          <path class="cls-6" d="m130.4,54c3.4,0,3.4-5.2,0-5.2-3.3-.1-3.3,5.2,0,5.2h0Z"/>
        </g>
      </g>
      <g>
        <path class="cls-1" d="m30.7,101.2c5.1-13.8,8.5-26.2,11.5-36.3,4.7-15.5,23.9-31.7,37-16.2,19.6,22.3-21.6,64.3-48.5,52.5"/>
        <g class="cls-3">
          <path class="cls-9" d="m76.1,54.9c3.2,3.4,4.8,10.9.6,14.3-3.1,1.7-4.7-2.6-5.1-4.8l1.7-.3c.2,2,.6,4.1.9,6.3.2,1.8.4,3.7-.1,5.5-.6,1.5-1.7,2.8-3.2,3.6-2.4,1.3-4.8,0-5.5-2.5-.4-1.1-.4-2.2-.4-3.3,0-.2.1-.3.3-.3s.3.1.3.3c.2,4,1.9,8.3.4,12.2-.2.6-.9,1.1-1.3,1.5-3.8,3.1-7.6-.2-9-4-.5-1.1-.8-2.3-1.1-3.5l1.9-.3c.2,1.7.6,3.5.9,5.3.3,1.9.6,4.4-.1,6-1.9,4.3-6.8,6.6-9.4,1.4-.5-1.2-.8-2.4-1-3.6l1.7-.2c0,3.6-1.6,7.4-4.8,9.2-2.6,1.2-3.9-1.6-4.1-3.7,0-.1.2-.2.2,0,.2.6.4,1.3.7,1.8,2.1,3.8,5.3-1,5.9-3.5.4-1.2.6-2.5.4-3.7,0-.5.3-.9.7-.9s.8.2.9.7c.2,1.1.5,2.2,1,3.1.9,1.8,2.5,2.5,4.1,1,.7-.7,1.3-1.6,1.7-2.6.2-.3.3-1.3.2-2.1-.1-2.7-.7-5.3-1-8.1-.1-1.2,1.7-1.4,1.9-.3.6,3.5,3.1,9.7,7.4,6.7.3-.3.9-.6,1.1-1,1.5-3.6.3-7.8,0-11.6h.6c-.2,2.8,1.4,7,4.8,4.9,1.1-.7,2.2-2.1,2.4-3.4.2-2.4-.5-5.3-.8-7.7-.2-1.1-.3-2.1-.4-3.2,0-.5.3-.9.8-.9.4,0,.8.3.9.7.3,1.3.8,3.4,2,3.9,1.2.3,2.1-1.9,2.4-3,.9-3.3.1-7-1.8-10,0,.1.2,0,.3.1h0Z"/>
        </g>
      </g>
      <g>
        <path class="cls-7" d="m66.7,117.9c-2.4,4.6-4.9,9.7-4.1,15,.7,5.2,4.5,9.5,8,13.2,1.1,1.2,2.9-.6,1.8-1.8-3.1-3.3-6.6-7.1-7.3-11.8-.7-4.7,1.7-9.4,3.8-13.4.7-1.3-1.5-2.6-2.2-1.2h0Z"/>
        <path class="cls-7" d="m76.3,142.7c-1.8-1.2-3.8-2.3-5.9-3.1-.9-.4-2-.7-2.9-.1-1.1.7-1.7,2.1-2.2,3.3-.3.7-.5,1.4-.8,2.1-.1.1-.1.3-.2.4,0,.1-.2.5-.1.3.1-.1-.1.2-.1.2-.1.1-.1.2-.2.3-.8,1.4,1.3,2.6,2.2,1.3.5-.9.9-2,1.2-3,.1-.3.2-.6.3-.8q0-.1.1-.2c-.1.2,0,0,0,0,.1-.2.1-.3.2-.4.1-.2.2-.5.4-.7.1-.1.1-.2.2-.4l.1-.1c.1-.1-.2.2,0,0q.1-.1.2-.2c.1-.1-.1.1-.1.1l.1-.1c-.1.1-.2.1,0,0,0,0-.3,0-.1,0,.3,0-.2-.1,0,0,.1,0,.2,0,.3.1.2.1.4.1.7.2.1,0,.3.1.4.2-.2-.1,0,0,.1,0,.3.1.6.3.9.4.5.3,1,.5,1.6.8.8.5,1.7,1,2.5,1.5.6.4,1.4.1,1.7-.4.2-.6,0-1.3-.6-1.7h0Z"/>
      </g>
    </g>
  </g>
</svg>