<?xml version="1.0" encoding="UTF-8"?>
<svg id="_Слой_2" data-name="Слой 2" xmlns="http://www.w3.org/2000/svg" viewBox="0 0 161.72 113.27">
  <defs>
    <style>
      .cls-1 {
        fill: #931c55;
      }

      .cls-2 {
        fill: #fff;
      }

      .cls-3 {
        opacity: .2;
      }

      .cls-3, .cls-4 {
        fill: none;
      }

      .cls-5 {
        fill: #c52370;
      }

      .cls-6 {
        fill: #cc4b8b;
      }

      .cls-4 {
        opacity: .7;
      }

      .cls-7 {
        fill: #d36ea1;
      }

      .cls-8 {
        fill: #5e4f44;
      }

      .cls-9 {
        fill: #db9022;
      }

      .cls-10 {
        fill: #222221;
      }

      .cls-11 {
        fill: #38302b;
      }
    </style>
  </defs>
  <g id="_Слой_8" data-name="Слой 8">
    <g>
      <g>
        <g>
          <path class="cls-8" d="m78.15,104.2c-1.11,2.7-2.95,4.9-4.34,7.5-.74,1.4-2.68.2-2.03-1.3,1.29-2.6,3.14-4.8,4.34-7.5.65-1.5,2.58-.2,2.03,1.3h0Z"/>
          <path class="cls-8" d="m76.76,112.4c-.18-1.2-.55-2.4-.92-3.6-.18-.7-.46-1.4-.83-2-.37-.7-.18-.6-.65-.5-2.31.6-4.24,2.9-6.37,4.1-1.29.8-2.49-1.4-1.2-2.2,2.4-1.4,5.17-4.7,8.12-4.5,2.68.2,3.69,6,4.06,8.1.28,1.5-1.94,2.1-2.21.6h0Z"/>
        </g>
        <g>
          <path class="cls-8" d="m59.33,100.4c-2.03,2.4-4.15,4.6-6.27,6.8-1.11,1.1-2.68-.7-1.66-1.8,2.21-2.2,4.24-4.5,6.27-6.8,1.01-1.1,2.68.6,1.66,1.8h0Z"/>
          <path class="cls-8" d="m58.04,107.9c-.37-2.2-.46-6.9-3.32-6.3-2.4.5-4.43,2.3-6.83,3-1.48.4-2.03-2-.65-2.4,2.77-.8,6.09-4.1,9.13-3.1,3.04.9,3.32,5.4,3.78,8.2.37,1.5-1.84,2.1-2.12.6h0Z"/>
        </g>
      </g>
      <g>
        <path class="cls-5" d="m26.21,82.3c23.71-10.7,34.59-38.2,55.53-55.1,21.31-17.2,53.78-21.2,66.51,1.7,16.7,31.6-9.96,63.7-35.98,72.1-26.94,8.6-54.98,4.8-77.67-10.3-3.23-2-5.81-5.2-8.12-7.5"/>
        <path class="cls-6" d="m69.29,101.1c1.66-3.8,4.43-6.8,7.75-8.9,6.55-4.3,14.21-6.4,21.68-7.7,9.04-1.6,26.94-3.4,29.89,8.1-5.17,3.7-10.79,6.6-16.33,8.4-14.67,4.7-29.61,5.7-43.91,3.2.18-1,.55-2.1.92-3.1Z"/>
        <path class="cls-6" d="m142.72,79c-1.94-.3-2.86-2.9-2.68-5.3,0-.4-.55-.7-.83-.4-1.38,1.8-3.69,4-6,2.9-2.68-1.2-2.77-4.5-2.12-7.1.09-.4-.37-.8-.65-.6-1.48.9-3.78,2.5-5.53,1.9-2.21-.7-2.03-4-2.03-6,0-.7-.83-.6-.92,0-.28,2.8-3.78,7.8-6.83,5.6-2.21-1.6-2.49-5.6-2.4-8.2,0-.6-.83-.7-.92-.1-.46,2.8-3.69,5.2-6.27,4.2-3.32-1.2-2.68-6-2.12-8.9.09-.6-.55-.9-.83-.4-3.51,5.6-9.22-.7-8.39-4.3.37-.5.83-1.1,1.11-1.7.28-.4-.28-1-.65-.7-.74.5-1.11,1.1-1.38,1.9-1.75,2.2-4.34,4.2-6.73,2.4-3.87-2.8-2.95-7.6-2.58-11.8,0-.3-.28-.6-.55-.5-3.51,1.4-6.92,1.5-8.3-3-.46-1.4-.83-3-.74-4.5v-.5c2.31-2.3,4.7-4.6,7.29-6.7,21.31-17.2,53.78-21.2,66.51,1.7,9.59,18,5.07,36.2-5.44,50.1Z"/>
      </g>
      <g>
        <path class="cls-5" d="m126.85,16.1s0-.2-.09-.6c0-.2,0-.4-.09-.7v-1.6c0-.3.09-.6.09-1,0-.3.09-.7.18-1.1.09-.3.18-.7.28-1.1.09-.3.28-.7.37-1,.09-.4.37-.6.55-1,.18-.3.37-.6.55-.9s.46-.5.65-.7.37-.4.55-.5c.18-.2.37-.3.46-.4.28-.2.46-.4.46-.4,0,0-.18.1-.55.2-.18.1-.37.1-.65.2-.28.1-.55.1-.74.3-.28.1-.55.3-.92.5s-.65.4-.92.7c-.28.3-.65.5-.92.8l-.92,1c-.28.4-.55.8-.74,1.1-.28.4-.46.8-.65,1.2-.18.4-.37.8-.55,1.2-.09.4-.28.8-.37,1.2-.09.2-.09.4-.18.5,0,.1-.09.3-.09.4-.09.2-.09.5-.18.6-.09.4-.18.6-.18.6-.37,1.4.37,2.8,1.66,3.1,1.29.4,2.58-.4,2.86-1.8.18-.2.18-.5.09-.8Z"/>
        <path class="cls-5" d="m126.3,15.8l-3.87-15.8-.74,16.3c-.09,1.4.92,2.6,2.21,2.7s2.4-1,2.49-2.4c0-.3,0-.5-.09-.8h0Z"/>
        <path class="cls-5" d="m127.68,16.5s-.09-.2-.28-.5c-.18-.3-.46-.8-.83-1.4s-.83-1.3-1.38-2c-.28-.3-.55-.7-.83-1l-.92-1c-.28-.3-.65-.6-1.01-.9-.28-.3-.65-.6-1.01-.9s-.65-.5-.92-.7-.65-.4-.92-.6c-.55-.4-1.01-.6-1.38-.7-.37-.2-.55-.2-.55-.2,0,0,.18.2.46.4.28.3.65.6,1.01,1.2.18.3.37.5.65.8.18.3.37.6.65,1,.18.3.37.7.55,1.1s.37.7.55,1.1.37.8.46,1.2c.18.4.28.8.37,1.2.28.7.46,1.4.55,2,.18.6.28,1.2.37,1.5.09.4.09.6.09.6.28,1.4,1.57,2.2,2.86,1.9,1.29-.3,2.03-1.7,1.75-3.1,0-.5-.09-.7-.28-1Z"/>
      </g>
      <g>
        <g>
          <path class="cls-1" d="m22.89,79.9s-.46-1.2-1.2-2.9c-.18-.4-.37-.9-.55-1.4s-.46-1-.74-1.5c-.55-1.1-1.11-2.2-1.75-3.4-.65-1.1-1.29-2.2-1.84-3.2-.28-.5-.55-1-.92-1.5-.28-.5-.55-.9-.83-1.3-1.11-1.6-1.84-2.7-1.84-2.7-1.38-2.1-4.06-2.5-6-1s-2.31,4.4-.92,6.5c.37.6.83,1,1.38,1.3l.18.1s1.01.6,2.4,1.4c.37.2.74.5,1.2.7.46.3.83.6,1.29.9.92.6,1.84,1.3,2.86,1.9.92.7,1.84,1.4,2.68,2.1.46.3.83.7,1.29,1,.37.4.74.7,1.11,1,1.29,1.2,2.21,2,2.21,2Z"/>
          <path class="cls-1" d="m21.69,84.1s-.18-.2-.55-.5c-.18-.2-.46-.3-.74-.5s-.65-.4-1.01-.6c-.74-.4-1.66-.8-2.68-1.2-.55-.2-1.01-.3-1.57-.5s-1.11-.3-1.66-.4c-2.21-.4-4.52-.6-6.18-.8-1.66-.1-2.68-.2-2.68-.2h0c-2.4-.2-4.43,1.7-4.61,4.3-.18,2.6,1.57,4.8,3.97,5,.74.1,1.38-.1,2.03-.4,0,0,1.01-.5,2.49-1.2s3.32-1.5,5.26-2.2c.46-.2,1.01-.3,1.48-.5.46-.1.92-.3,1.38-.4.92-.2,1.84-.3,2.58-.3h1.01c.28,0,.55,0,.83.1.37.3.65.3.65.3Z"/>
        </g>
        <path class="cls-5" d="m30.18,82.3c-1.2-3.8-6.46-20-11.44-19.1-6.55.9,1.38,11.2,2.95,13.2-2.4-2.3-18.45-13.4-16.79-2.8.92,5.9,9.87,7.3,13.93,9-3.41,1.7-12.64,2.1-13.38,7.5-.55,4.1,2.77,3.9,5.63,3.6,6.55-.9,13.84-7.4,19.19-11.6"/>
        <g>
          <path class="cls-1" d="m22.52,71.7s-.09-.3-.28-.7c-.09-.2-.18-.5-.28-.8-.09-.3-.28-.7-.37-1-.09-.4-.28-.7-.46-1.1s-.28-.8-.46-1.3c-.18-.4-.37-.9-.55-1.3-.18-.5-.37-.9-.55-1.4-.37-1-.74-1.9-1.2-2.8-.37-.9-.83-1.7-1.29-2.4-.46-.7-.83-1.2-1.11-1.6-.28-.4-.46-.6-.46-.6v.8c0,.5.09,1.2.09,2,.09.8.28,1.7.46,2.7.09.5.28,1,.37,1.5.18.5.37,1,.55,1.5s.46,1,.65,1.5.55.9.83,1.4c.28.4.55.8.83,1.2.28.4.65.7.92,1s.55.5.83.7.46.3.74.5c.55.1.74.2.74.2Z"/>
          <path class="cls-1" d="m14.59,77.1s-.18-.2-.46-.6c-.28-.3-.74-.8-1.29-1.3s-1.2-1-1.94-1.5c-.37-.2-.74-.5-1.2-.7s-.83-.4-1.29-.6c-.92-.4-1.84-.7-2.77-.9-.46-.1-.92-.2-1.29-.2h-1.75c-.18,0-.37.1-.46.1-.28.1-.55.2-.74.2-.46.1-.65.3-.65.3,0,0,.28.1.65.3.18.1.46.2.65.3.28.1.55.2.83.4.28.2.65.3,1.01.5s.74.4,1.11.5c.37.2.74.3,1.2.5.37.2.83.4,1.2.5.83.4,1.66.7,2.49,1,.83.3,1.66.5,2.31.7.74.2,1.29.2,1.75.3.37.2.65.2.65.2Z"/>
          <path class="cls-1" d="m12.47,90.1s-.18-.1-.55-.1c-.37-.1-.83-.1-1.38-.1-1.11,0-2.49.2-3.78.6-1.29.5-2.58,1.3-3.41,2.1-.46.4-.74.8-1.01,1-.18.3-.37.5-.37.5,0,0,.18.1.55.1s.83.1,1.38,0c.55,0,1.11-.1,1.75-.3.65-.1,1.29-.4,1.94-.6,1.29-.5,2.58-1.2,3.51-1.9.46-.4.83-.7,1.01-1,.18-.1.37-.3.37-.3Z"/>
        </g>
      </g>
      <g>
        <g>
          <path class="cls-11" d="m130.91,52.4c-8.95,0-8.95-15,0-15s8.86,15,0,15h0Z"/>
          <g class="cls-4">
            <path class="cls-8" d="m130.91,49.9c-5.9,0-5.9-10,0-10s5.9,10,0,10h0Z"/>
          </g>
          <path class="cls-2" d="m128.61,45.3c-2.21,0-2.21-3.8,0-3.8,2.21.1,2.21,3.8,0,3.8h0Z"/>
        </g>
        <path class="cls-9" d="m151.85,56.5s2.49-1.1,4.98-2.1c2.31-.9,4.89-1.7,4.89-1.7,0,0-1.84-2.1-3.97-4.2-2.03-1.9-4.06-3.8-4.06-3.8h0c-2.68-2.5-6.83-2.2-9.13.8-2.31,2.9-2.03,7.4.74,9.9,1.84,1.7,4.43,2,6.55,1.1Z"/>
        <path class="cls-7" d="m117.45,56.7c-3.14,0-3.14-5.2,0-5.2s3.14,5.2,0,5.2h0Z"/>
      </g>
      <g>
        <path class="cls-1" d="m82.85,77c25.64.1,33.12-24.1,12.27-42.8-15.87-13.2-43.26-14.2-62.64-11.7,1.75,14.3,26.84,57.5,50.37,54.5"/>
        <g class="cls-3">
          <path class="cls-10" d="m98.35,59.4c-.09.4-.28.8-.37,1.1-.18.4-.28.7-.46,1.1-.37.7-.83,1.4-1.29,2s-1.01,1.1-1.57,1.6-1.2.8-1.84,1.1c-.37.1-.65.2-.92.2s-.65,0-.92-.1c-.55-.2-.92-.6-1.2-1.2-.09-.1-.09-.3-.18-.5s-.09-.3-.09-.5c-.09-.3-.09-.7-.09-1.1v-1.1c0-.4.09-.8.09-1.2h0c0-.5-.28-.9-.74-.9-.28,0-.55.1-.74.4-.83,1.3-1.84,2.5-3.04,3.4s-2.58,1.7-3.87,1.8c-.37,0-.65,0-1.01-.1-.28-.1-.55-.2-.83-.4-.28-.2-.46-.4-.55-.8-.18-.3-.28-.7-.28-1-.09-.4-.09-.8-.09-1.2s.09-.8.09-1.2c.09-.4.18-.8.28-1.2.09-.4.28-.8.37-1.2l-.65-.2c-.09.5-.28.9-.37,1.4-.18.5-.37.9-.55,1.3-.46.8-.92,1.6-1.66,2.1-.37.2-.74.4-1.11.5-.37.1-.83,0-1.2-.1s-.74-.4-1.11-.6c-.37-.3-.65-.6-.92-.9-.55-.7-1.01-1.5-1.38-2.3s-.65-1.7-.74-2.7c-.09-.5-.09-.9-.18-1.4v-1.4c0-.5.09-.9.09-1.4.09-.5.18-.9.28-1.3.09-.4-.09-.9-.55-1-.37-.1-.65.1-.83.4v.1c-.18.5-.37.9-.65,1.4-.18.4-.46.9-.74,1.3-.55.8-1.2,1.5-1.94,1.9-.37.2-.74.3-1.11.4-.37,0-.74,0-1.2-.1-.37-.1-.74-.3-1.11-.5-.37-.2-.74-.5-1.01-.8-.37-.3-.65-.7-.92-1.1s-.55-.8-.74-1.2c-.28-.4-.46-.9-.65-1.3s-.37-.9-.46-1.4c-.18-.5-.28-1-.37-1.4-.09-.5-.18-1-.18-1.5-.09-.5-.09-1,0-1.5,0-.5.09-1,.18-1.5.09-.6-.28-1.1-.74-1.2-.28,0-.55,0-.74.2h0c-.28.2-.55.5-.92.7-.18.1-.28.2-.46.3-.18.1-.28.2-.46.2s-.28.1-.37.1h-.37c-.09-.1-.18-.1-.28-.2,0,0-.09-.1-.18-.1l-.09-.2c-.09-.1-.18-.3-.28-.4-.09-.2-.09-.3-.18-.5-.09-.4-.18-.8-.18-1.2,0-.2,0-.4-.09-.6v-.6c0-.4,0-.9.09-1.3v-.1c0-.4-.28-.8-.65-.8-.18,0-.28,0-.37.1-.37.3-.83.5-1.2.7-.46.2-.83.3-1.29.4-.18,0-.46,0-.65.1-.18,0-.46,0-.65-.1s-.46-.1-.65-.2-.46-.1-.65-.3c-.18-.1-.37-.2-.55-.4-.18-.1-.37-.3-.55-.5s-.37-.3-.46-.5c-.18-.2-.28-.4-.46-.6s-.28-.4-.37-.7c-.09-.2-.28-.5-.37-.7s-.18-.5-.28-.7l-.28-.8h0c0-.1-.09-.1-.09-.1l-.09.1.18.8c0,.3.09.5.18.8s.18.5.28.8c.09.3.18.5.37.8.09.2.28.5.37.7.18.2.28.5.46.7l.55.6c.18.2.46.3.65.5s.46.3.74.4.55.2.74.3c.28.1.55.1.83.1h.83c.55,0,1.11-.1,1.57-.3.55-.2,1.01-.4,1.48-.7l-1.01-.7c-.09.5-.09.9-.09,1.4v1.4c0,.5.09,1,.18,1.5.09.3.09.5.18.8s.18.5.37.8c.09.1.18.2.28.4l.28.3c.18.2.46.4.74.5s.65.2.92.2.55,0,.83-.1.46-.2.74-.3c.28-.1.46-.2.65-.4.46-.2.74-.6,1.11-.9l-1.57-1c-.09.6-.18,1.2-.18,1.8v1.8c0,.6.09,1.2.18,1.7.09.6.28,1.1.46,1.7s.37,1.1.55,1.6.46,1,.74,1.5.65,1,.92,1.4c.37.4.74.9,1.2,1.3s.92.7,1.38,1,1.01.5,1.66.6c.55.1,1.2.1,1.84,0,.55-.1,1.2-.3,1.66-.6,1.01-.6,1.75-1.5,2.4-2.5.28-.5.55-1,.83-1.5s.46-1,.65-1.5l-1.38-.5c-.09.5-.18,1-.28,1.5-.09.5-.09,1-.09,1.5s.09,1,.09,1.5c.09.5.18,1,.28,1.5.28,1,.55,1.9,1.01,2.8s1.01,1.7,1.66,2.4c.37.4.74.7,1.11,1,.37.3.83.5,1.29.6s1.01.2,1.48.1.92-.3,1.38-.6c.83-.6,1.38-1.4,1.84-2.3.18-.4.46-.9.55-1.4.18-.5.37-.9.46-1.4.09-.2,0-.4-.18-.5s-.37,0-.46.2h0c-.28.8-.55,1.6-.83,2.5-.09.4-.18.9-.28,1.3-.09.4-.09.9-.09,1.4s.09,1,.28,1.4c.18.5.46.9.83,1.3s.83.6,1.29.8c.46.2.92.2,1.38.2.92,0,1.75-.3,2.58-.6.37-.2.83-.4,1.2-.6s.74-.5,1.11-.7c.65-.5,1.29-1.1,1.94-1.8.28-.3.55-.7.83-1,.28-.4.46-.7.74-1.1l-1.48-.6c0,.4-.09.9-.09,1.3v1.3c0,.4.09.9.18,1.3.09.2.09.4.18.7.09.2.18.4.28.7.37.9,1.2,1.7,2.12,1.9.46.1.92.1,1.38.1.46-.1.83-.2,1.29-.4.74-.3,1.48-.8,2.03-1.4.65-.6,1.11-1.2,1.57-1.9.46-.7.83-1.5,1.11-2.2.18-.4.28-.8.37-1.2.09-.4.18-.8.28-1.2q0-.1-.09-.1c0,.1-.09.2-.09.2Z"/>
        </g>
      </g>
    </g>
  </g>
</svg>